<svg width="52" height="49" viewBox="0 0 52 49" fill="none" xmlns="http://www.w3.org/2000/svg">
<path d="M9.1 2.51678L0 1.88863L3.25 16.3361L4.55 20.105L5.85 38.3214L18.2 47.7437L19.5 49H31.85L33.8 47.7437L46.15 38.3214L47.45 20.105L48.75 16.9643L52 1.88863L41.6 2.51678C41.6 2.51678 38.2417 1.26052 35.1 0.632329C31.9583 0.00413575 29.5629 -0.0146363 26 0.00417764C22.6903 0.0216548 20.8218 0.151528 17.55 0.632329C14.2014 1.12441 9.1 2.51678 9.1 2.51678Z" fill="white"/>
<path fill-rule="evenodd" clip-rule="evenodd" d="M13.9276 7.07718L14.6136 10.393L26.0095 17.9204L37.4245 10.374L38.1296 7.13435C36.6685 6.25668 30.888 5 26.2001 5C21.5121 5 15.6109 6.21857 13.9276 7.07718ZM19.7206 9.07812H32.3552L26.0474 13.2134L19.7206 9.07812Z" fill="#DA0000"/>
<path fill-rule="evenodd" clip-rule="evenodd" d="M6 6.56268C8.13183 6.74945 10.2662 6.9146 12.403 7.05816L13.1844 11.0219L20.9023 16.1291L22.1982 24.0758L15.1091 23.0277L8.61077 18.4922L6 6.56268ZM9.4493 10.8124L18.3107 16.8534L18.5012 17.9777L9.69704 12.013L9.4493 10.8124ZM10.0782 14.3379L18.9395 20.2645L19.1301 21.427L10.4212 15.6528L10.0782 14.3379Z" fill="#DA0000"/>
<path fill-rule="evenodd" clip-rule="evenodd" d="M46 6.61981C43.8682 6.80658 41.7338 6.97173 39.597 7.11529L38.8156 11.0791L31.0977 16.1863L29.8018 24.1329L36.8909 23.0848L43.3892 18.5493L46 6.61981ZM42.5507 10.8695L33.6893 16.9104L33.4988 18.0348L42.303 12.07L42.5507 10.8695ZM41.9218 14.395L33.0605 20.3216L32.8699 21.484L41.5788 15.7099L41.9218 14.395Z" fill="#DA0000"/>
<path opacity="0.998" d="M28.487 34.0043C28.4805 30.7646 28.487 27.525 28.506 24.2854L29.5732 17.1201L26.0096 19.5974L22.446 17.1201L23.456 24.2091V34.0043H28.487Z" fill="#DA0000"/>
<path opacity="0.998" d="M38.4917 23.6756C38.4726 24.3106 38.4661 24.9459 38.4726 25.5812L35.4998 27.6775L35.5379 40.4454L41.4264 35.3764L42.5507 20.8552L38.4917 23.6756Z" fill="#DA0000"/>
<path opacity="0.999" d="M13.5464 25.5813C13.5528 24.9459 13.5464 24.3107 13.5273 23.6756L9.54449 20.8171L10.6879 35.4717L16.443 40.293L16.4811 27.8299L13.5464 25.5813Z" fill="#DA0000"/>
<path opacity="0.992" d="M34.0324 41.4364C34.064 36.8628 34.0579 32.2892 34.0134 27.7156L29.8209 25.6194L29.7828 35.3383H22.2363V25.5432L17.9295 27.8109C17.9612 32.3882 17.9803 36.9682 17.9867 41.5508L19.9495 43.2659L22.2363 37.8157C24.729 37.7902 27.2254 37.7648 29.7256 37.7394L32.0696 43.2659L34.0324 41.4364Z" fill="#DA0000"/>
<path d="M28.9252 39.1686H23.0939L21.1691 44.0853H30.7928H30.8309L28.9252 39.1686Z" fill="#DA0000"/>
</svg>
