<svg width="31" height="30" viewBox="0 0 31 30" fill="none" xmlns="http://www.w3.org/2000/svg">
<path fill-rule="evenodd" clip-rule="evenodd" d="M6.08481 1.59434L6.61138 4.13945L15.3583 9.91712L24.1199 4.12482L24.6611 1.63823C23.5397 0.964567 19.1029 0 15.5046 0C11.9064 0 7.37686 0.935313 6.08481 1.59434ZM10.5313 3.13016H20.229L15.3875 6.30422L10.5313 3.13016Z" fill="#DA0000"/>
<path fill-rule="evenodd" clip-rule="evenodd" d="M0 1.19946C1.63629 1.34281 3.27452 1.46958 4.91468 1.57977L5.51439 4.62218L11.4383 8.54222L12.433 14.6417L6.99171 13.8372L2.0039 10.356L0 1.19946ZM2.64752 4.46134L9.44908 9.0981L9.59535 9.9611L2.83767 5.38284L2.64752 4.46134ZM3.13021 7.16734L9.93178 11.7163L10.078 12.6086L3.3935 8.1766L3.13021 7.16734Z" fill="#DA0000"/>
<path fill-rule="evenodd" clip-rule="evenodd" d="M30.7021 1.24329C29.0658 1.38664 27.4276 1.5134 25.7874 1.62359L25.1877 4.66601L19.2638 8.58605L18.2692 14.6855L23.7104 13.881L28.6982 10.3998L30.7021 1.24329ZM28.0546 4.50513L21.253 9.14189L21.1068 10.0049L27.8644 5.42663L28.0546 4.50513ZM27.5719 7.21112L20.7703 11.7601L20.6241 12.6524L27.3086 8.22039L27.5719 7.21112Z" fill="#DA0000"/>
<path opacity="0.998" d="M17.2599 22.2623C17.255 19.7757 17.2599 17.2891 17.2746 14.8026L18.0937 9.3028L15.3584 11.2043L12.6232 9.3028L13.3984 14.744V22.2623H17.2599Z" fill="#DA0000"/>
<path opacity="0.998" d="M24.939 14.3345C24.9244 14.8219 24.9194 15.3095 24.9244 15.7972L22.6426 17.4061L22.6719 27.2063L27.1916 23.3155L28.0546 12.1697L24.939 14.3345Z" fill="#DA0000"/>
<path opacity="0.999" d="M5.79225 15.7972C5.79714 15.3095 5.79225 14.822 5.77763 14.3345L2.72058 12.1404L3.5982 23.3886L8.01556 27.0893L8.04481 17.5232L5.79225 15.7972Z" fill="#DA0000"/>
<path opacity="0.992" d="M21.5164 27.9669C21.5406 24.4564 21.536 20.9459 21.5017 17.4354L18.2838 15.8265L18.2545 23.2862H12.4622V15.7679L9.15652 17.5086C9.18086 21.0219 9.19549 24.5373 9.20041 28.0546L10.707 29.3711L12.4622 25.1877L18.2106 25.1292L20.0098 29.3711L21.5164 27.9669Z" fill="#DA0000"/>
<path d="M17.5963 26.2263H13.1204L11.6431 30H19.0297H19.059L17.5963 26.2263Z" fill="#DA0000"/>
</svg>
