<svg width="29" height="32" viewBox="0 0 29 32" fill="none" xmlns="http://www.w3.org/2000/svg">
<path fill-rule="evenodd" clip-rule="evenodd" d="M2.2718 27.3606L12.4281 31.9456L1.35899 15.5556L2.2718 27.3606ZM28.7358 1.55013L26.4019 4.82389L19.2435 7.0355L18.9013 9.32276L25.4264 7.56657L25.2603 8.93227L18.6626 10.8077L18.5587 12.2496L25.001 10.5584L24.8556 11.9892L19.0047 13.5937C18.3826 13.7563 17.8013 14.1248 17.2412 14.6883L14.3366 17.377L11.4009 14.4933C10.9547 14.0705 10.4464 13.7563 9.86556 13.5612L4.14951 11.7399L3.98361 10.3091L10.2078 12.2169L9.97957 10.6124L3.58932 8.58555L3.42342 7.26302L9.83432 9.23583L9.57524 6.97016L2.44831 4.70469L0 1.36578L1.3071 12.9323L14.1397 32.0001L27.2003 13.2902L28.7358 1.55013ZM17.7913 22.233L15.7892 18.0052L24.1818 15.382L17.7913 22.233ZM4.32582 15.0786L12.7705 17.886L10.7682 22.233L4.32582 15.0786ZM26.0593 27.5988L27.1486 15.7398L16.0174 31.8915L26.0593 27.5988Z" fill="#821194"/>
<path fill-rule="evenodd" clip-rule="evenodd" d="M11.7433 12.878L14.3056 15.5013L16.7641 13.0515L18.8181 0.17346L16.0174 5.42002H12.9362L9.96933 0L11.7433 12.878ZM15.8513 7.57718L14.4198 12.2816L12.9363 7.57718H15.8513Z" fill="#821194"/>
</svg>
