<svg width="46" height="50" viewBox="0 0 46 50" fill="none" xmlns="http://www.w3.org/2000/svg">
<path d="M3.9661 4.1695L0.5 0.500008L3.17288 23.4348L4.31864 42.087L23.7966 50L42.7017 42.087L43.8475 24L46 0.499996L43.1864 4.1695L31.2441 8.57628L32 0.500012L26.0881 7.04349H21.5051L16 0.500008L16.3492 7.69492L3.9661 4.1695Z" fill="white"/>
<path fill-rule="evenodd" clip-rule="evenodd" d="M8.95664 38.6179L21.4168 44.243L7.83676 24.1351L8.95664 38.6179ZM41.4237 6.95255L38.5604 10.9689L29.7782 13.6822L29.3584 16.4883L37.3636 14.3338L37.1598 16.0093L29.0656 18.3101L28.938 20.0791L36.8418 18.0042L36.6633 19.7596L29.4852 21.7281C28.722 21.9275 28.0089 22.3796 27.3217 23.071L23.7583 26.3695L20.1566 22.8317C19.6092 22.3131 18.9856 21.9275 18.273 21.6883L11.2603 19.4538L11.0568 17.6984L18.6928 20.039L18.4128 18.0705L10.573 15.5839L10.3695 13.9614L18.2346 16.3817L17.9168 13.6021L9.17318 10.8227L6.16949 6.72638L7.7731 20.9167L23.5166 44.3098L39.5399 21.3557L41.4237 6.95255ZM27.9966 32.3272L25.5403 27.1404L35.8367 23.922L27.9966 32.3272ZM11.4766 23.5498L21.8368 26.9941L19.3803 32.3272L11.4766 23.5498ZM38.1401 38.9101L39.4765 24.361L25.8203 44.1766L38.1401 38.9101Z" fill="#821194"/>
<path fill-rule="evenodd" clip-rule="evenodd" d="M20.5766 20.8501L23.7201 24.0685L26.7364 21.0629L29.2563 5.26365L25.8203 11.7004H22.0401L18.4003 5.05084L20.5766 20.8501ZM25.6165 14.3468L23.8602 20.1184L22.0403 14.3468H25.6165Z" fill="#821194"/>
</svg>
