<svg width="31" height="35" viewBox="0 0 31 35" fill="none" xmlns="http://www.w3.org/2000/svg">
<path fill-rule="evenodd" clip-rule="evenodd" d="M4.74279 4.85C4.35737 3.40451 4.38948 1.01438 4.45372 0C3.93983 0.729086 2.85421 2.73883 2.62295 4.9451C2.33389 7.70295 2.81566 9.70001 3.77921 11.602C4.55005 13.1235 5.19241 13.5673 5.41724 13.599H3.39379C0.105067 10.8412 1.85211 8.46373 1.85211 8.46373C1.85211 8.46373 -0.749498 9.9853 0.214079 13.0284C1.17766 16.0716 5.41727 18.5441 5.41727 18.5441H7.0553C7.53707 18.5441 10.8131 19.4 10.8131 19.4L12.4511 22.0628V24.1549L14.4746 25.1059L15.4331 26.9979L16.3915 25.1059L18.415 24.1549V22.0628L20.053 19.4C20.053 19.4 23.3291 18.5441 23.8108 18.5441H25.4489C25.4489 18.5441 29.6885 16.0716 30.6521 13.0284C31.6156 9.9853 29.014 8.46373 29.014 8.46373C29.014 8.46373 30.7611 10.8412 27.4723 13.599H25.4489C25.6737 13.5673 26.3161 13.1235 27.0869 11.602C28.0505 9.70001 28.5322 7.70295 28.2432 4.9451C28.0119 2.73883 26.9263 0.729086 26.4124 0C26.4766 1.01438 26.5088 3.40451 26.1233 4.85L26.0583 5.09468C25.6223 6.73543 25.4088 7.53914 24.5817 8.08334C23.8879 8.53981 20.1172 9.9219 18.3186 10.5559L16.3915 17.1177L16.5842 19.3049L15.4331 20.2517L14.2819 19.3049L14.4746 17.1177L12.5475 10.5559C10.7489 9.9219 6.97822 8.53981 6.28446 8.08334C5.45738 7.53914 5.24383 6.73543 4.80788 5.09468L4.74279 4.85ZM9.37014 17.3955V15.1424L11.6991 16.6445L13.0964 18.8038V20.1181L12.5375 19.1793L9.37014 17.3955ZM21.7717 17.4038V15.1575L19.3602 16.6551L17.9134 18.8078V20.1181L18.4921 19.1822L21.7717 17.4038ZM13.1473 22.546C13.7698 22.6299 14.3793 23.3509 14.6063 23.7008L14.3145 22.021L12.9527 21.4961L13.1473 22.546ZM16.2599 23.7008C16.4869 23.3509 17.0964 22.6299 17.7189 22.546L17.9134 21.4961L16.5517 22.021L16.2599 23.7008ZM14.781 18.9916L15.4331 11.5749L16.122 18.9916L15.534 19.7426L14.781 18.9916ZM10.4377 19.8876L6.77738 19.0157C6.3921 20.4688 5.23622 21.6313 5.23622 21.6313C5.23622 21.6313 7.92282 21.4918 8.60752 22.6969C9.37811 24.0532 6.97003 27.0563 6.97003 27.0563C10.1487 25.7 14.0016 29.1875 14.1942 35L15.1575 27.3469L14.1942 28.5094L13.0384 25.7C12.3641 25.7 11.512 25.5063 11.1119 24.925C10.4184 23.9176 11.3046 22.6646 11.8825 22.1157L10.4377 19.8876ZM24.0888 19.0157L20.4286 19.8876L18.9837 22.1157C19.5616 22.6646 20.4478 23.9176 19.7543 24.925C19.3542 25.5063 18.5021 25.7 17.8278 25.7L16.672 28.5094L15.7087 27.3469L16.672 35C16.8646 29.1875 20.7175 25.7 23.8962 27.0563C23.8962 27.0563 21.4881 24.0532 22.2587 22.6969C22.9434 21.4918 25.63 21.6313 25.63 21.6313C25.63 21.6313 24.4741 20.4688 24.0888 19.0157Z" fill="#FFBE42"/>
</svg>
