<svg width="47" height="51" viewBox="0 0 47 51" fill="none" xmlns="http://www.w3.org/2000/svg">
<path d="M0.696363 21.0202C-2.00613 13.9142 4.41409 6.10606 5.49999 4.5L9.92638 0C10.4694 2.67677 11.5553 9.02828 13.727 10.3131C15.8988 11.598 21.1473 12.1077 23.5 13C25.8528 12.1077 31.1012 11.598 33.273 10.3131C35.4448 9.02828 36.5307 2.67677 37.0737 0L40.8742 4.5C41.9601 6.10606 49.0062 13.9142 46.3037 21.0202C44.6749 25.303 41.4172 27.4444 39.2454 29.0505L40.8742 31.7273C34.9019 33.8687 37.0737 40.2929 37.0737 40.2929C37.0737 40.2929 32.5336 41.1808 30.5583 42.9697C28.6714 44.6785 27.8435 48.3232 27.8435 48.3232C27.8435 48.3232 27.3007 49.9293 23.5 51C19.6994 49.9293 19.1565 48.3232 19.1565 48.3232C19.1565 48.3232 18.3286 44.6785 16.4417 42.9697C14.4664 41.1808 9.92638 40.2929 9.92638 40.2929C9.92638 40.2929 12.0982 33.8687 6.12582 31.7273L7.75464 29.0505C5.58287 27.4444 2.32517 25.303 0.696363 21.0202Z" fill="white"/>
<path fill-rule="evenodd" clip-rule="evenodd" d="M10.0159 10.2731C9.52701 8.4396 9.56775 5.40789 9.64923 4.12122C8.9974 5.04601 7.62036 7.59522 7.32703 10.3937C6.96037 13.8919 7.57147 16.425 8.79366 18.8375C9.77142 20.7675 10.5862 21.3304 10.8714 21.3706H8.30478C4.13327 17.8725 6.34927 14.8569 6.34927 14.8569C6.34927 14.8569 3.04931 16.7869 4.27154 20.6469C5.49377 24.5069 10.8714 27.6431 10.8714 27.6431H12.9492C13.5602 27.6431 17.7157 28.7288 17.7157 28.7288L19.7934 32.1063V34.76L22.36 35.9663L23.5758 38.3661L24.7915 35.9663L27.3581 34.76V32.1063L29.4359 28.7288C29.4359 28.7288 33.5913 27.6431 34.2024 27.6431H36.2801C36.2801 27.6431 41.6577 24.5069 42.88 20.6469C44.1022 16.7869 40.8022 14.8569 40.8022 14.8569C40.8022 14.8569 43.0182 17.8725 38.8467 21.3706H36.2801C36.5653 21.3304 37.3801 20.7675 38.3578 18.8375C39.58 16.425 40.1911 13.8919 39.8245 10.3937C39.5312 7.59522 38.1541 5.04601 37.5023 4.12122C37.5838 5.40789 37.6245 8.4396 37.1356 10.2731L37.0531 10.5835C36.5001 12.6646 36.2292 13.6841 35.1801 14.3744C34.3001 14.9534 29.5173 16.7065 27.2359 17.5106L24.7915 25.8338L25.0359 28.6081L23.5758 29.8091L22.1156 28.6081L22.36 25.8338L19.9157 17.5106C17.6342 16.7065 12.8514 14.9534 11.9714 14.3744C10.9223 13.6841 10.6514 12.6646 10.0985 10.5835L10.0159 10.2731ZM15.8853 26.1862V23.3282L18.8394 25.2335L20.6118 27.9725V29.6396L19.9029 28.4488L15.8853 26.1862ZM31.6158 26.1967V23.3474L28.5571 25.247L26.7219 27.9775V29.6396L27.456 28.4524L31.6158 26.1967ZM20.6764 32.7192C21.466 32.8257 22.2392 33.7401 22.527 34.184L22.1569 32.0533L20.4296 31.3875L20.6764 32.7192ZM24.6245 34.184C24.9124 33.7401 25.6855 32.8257 26.4751 32.7192L26.7219 31.3875L24.9946 32.0533L24.6245 34.184ZM22.7487 28.2106L23.5758 18.803L24.4497 28.2106L23.7038 29.1633L22.7487 28.2106ZM17.2394 29.3472L12.5966 28.2413C12.1079 30.0845 10.6418 31.559 10.6418 31.559C10.6418 31.559 14.0495 31.3821 14.918 32.9107C15.8955 34.631 12.841 38.4402 12.841 38.4402C16.8729 36.7199 21.7601 41.1435 22.0044 48.5162L23.2262 38.8089L22.0044 40.2834L20.5383 36.7199C19.683 36.7199 18.6022 36.4742 18.0947 35.7369C17.215 34.459 18.339 32.8697 19.0721 32.1734L17.2394 29.3472ZM34.5549 28.2413L29.9121 29.3472L28.0794 32.1734C28.8125 32.8697 29.9365 34.459 29.0569 35.7369C28.5493 36.4742 27.4685 36.7199 26.6133 36.7199L25.1471 40.2834L23.9254 38.8089L25.1471 48.5162C25.3915 41.1435 30.2786 36.7199 34.3105 38.4402C34.3105 38.4402 31.2561 34.631 32.2335 32.9107C33.102 31.3821 36.5098 31.559 36.5098 31.559C36.5098 31.559 35.0436 30.0845 34.5549 28.2413Z" fill="#FFBE42"/>
</svg>
