<svg width="33" height="28" viewBox="0 0 33 28" fill="none" xmlns="http://www.w3.org/2000/svg">
<path d="M0 2.33333C0 1.04271 1.04271 0 2.33333 0H30.3333C31.624 0 32.6667 1.04271 32.6667 2.33333C32.6667 3.62396 31.624 4.66667 30.3333 4.66667H2.33333C1.04271 4.66667 0 3.62396 0 2.33333ZM0 14C0 12.7094 1.04271 11.6667 2.33333 11.6667H30.3333C31.624 11.6667 32.6667 12.7094 32.6667 14C32.6667 15.2906 31.624 16.3333 30.3333 16.3333H2.33333C1.04271 16.3333 0 15.2906 0 14ZM32.6667 25.6667C32.6667 26.9573 31.624 28 30.3333 28H2.33333C1.04271 28 0 26.9573 0 25.6667C0 24.376 1.04271 23.3333 2.33333 23.3333H30.3333C31.624 23.3333 32.6667 24.376 32.6667 25.6667Z" fill="black"/>
</svg>
