<svg width="20" height="25" viewBox="0 0 20 25" fill="none" xmlns="http://www.w3.org/2000/svg">
<ellipse cx="9.93424" cy="4.91855" rx="2.48355" ry="2.45926" fill="black"/>
<path d="M4.9671 7.99135H14.9013V11.6802L9.93421 12.5L4.9671 11.6802V7.99135Z" fill="black"/>
<path d="M6.6228 13.1161H9.93421H13.2456V14.3457L11.5899 15.5754H8.2785L6.6228 14.3457V13.1161Z" fill="black"/>
<rect y="7" width="4.13926" height="4.09877" fill="black"/>
<rect y="7" width="4.13926" height="4.09877" fill="black"/>
<rect width="4.13926" height="4.09877" transform="matrix(-1 0 0 1 20 7)" fill="black"/>
<rect width="3.9613" height="4.40583" transform="matrix(0.978269 0.207339 -0.211274 0.977427 3.90601 19.792)" fill="black"/>
<rect width="3.90514" height="4.40038" transform="matrix(0.939948 -0.341318 0.347284 0.93776 12.8354 20.8735)" fill="black"/>
<rect width="2.2912" height="5.1406" transform="matrix(0.944054 -0.329791 0.335607 0.942002 0.382629 9.28162)" fill="black"/>
<rect width="2.2912" height="5.1406" transform="matrix(0.944054 -0.329791 0.335607 0.942002 0.382629 9.28162)" fill="black"/>
<rect width="2.2912" height="5.1406" transform="matrix(-0.944054 -0.329791 -0.335607 0.942002 19.6174 9.28162)" fill="black"/>
<rect width="1.99201" height="4.44959" transform="matrix(0.944054 -0.329791 0.335607 0.942002 11.9589 15.7825)" fill="black"/>
<rect width="1.99331" height="4.20953" transform="matrix(0.97828 0.207287 -0.21122 0.977439 5.96063 15.324)" fill="black"/>
<path fill-rule="evenodd" clip-rule="evenodd" d="M7.45068 -1.33514e-05V4.5H6.45068V-1.33514e-05H7.45068Z" fill="black"/>
<path fill-rule="evenodd" clip-rule="evenodd" d="M13.4367 -1.33514e-05V4.5H12.424V-1.33514e-05H13.4367Z" fill="black"/>
<path d="M6.20886 4.09875H7.86456V5.73826H6.20886V4.09875Z" fill="black"/>
<path d="M12.0038 4.09875H13.6595V5.73826H12.0038V4.09875Z" fill="black"/>
</svg>
