<svg width="33" height="29" viewBox="0 0 33 29" fill="none" xmlns="http://www.w3.org/2000/svg">
<path fill-rule="evenodd" clip-rule="evenodd" d="M0.591264 1.39611C1.49069 0.337 3.09161 0.196505 4.16701 1.0823L16.4999 11.2408L28.8329 1.0823C29.9083 0.196505 31.5092 0.337 32.4086 1.39611C33.308 2.45522 33.1654 4.03187 32.09 4.91767L20.4567 14.4999L32.09 24.0822C33.1654 24.968 33.308 26.5447 32.4086 27.6038C31.5092 28.6629 29.9083 28.8034 28.8329 27.9176L16.4999 17.7591L4.16701 27.9176C3.09161 28.8034 1.49069 28.6629 0.591264 27.6038C-0.308163 26.5447 -0.165507 24.968 0.909895 24.0822L12.5432 14.4999L0.909895 4.91767C-0.165507 4.03187 -0.308163 2.45522 0.591264 1.39611Z" fill="black"/>
</svg>
