<svg width="35" height="27" viewBox="0 0 35 27" fill="none" xmlns="http://www.w3.org/2000/svg">
<path d="M2.90644 0.607824C2.28672 0.119197 1.38693 0.232415 0.8983 0.852138C0.409673 1.47186 0.522891 2.37165 1.14261 2.86028L31.6521 26.6958C32.2718 27.1844 33.1716 27.0712 33.6602 26.4514C34.1488 25.8317 34.0356 24.9319 33.4159 24.4433L29.4115 21.1361C31.7712 18.7168 33.3682 16.0055 34.1726 14.0808C34.3693 13.6101 34.3693 13.0857 34.1726 12.6149C33.2848 10.4876 31.4197 7.389 28.6309 4.80285C25.8302 2.19287 21.9748 0 17.1601 0C13.0961 0 9.71147 1.56718 7.07169 3.623L2.90644 0.607824ZM9.40161 5.44641C11.5587 3.91498 14.1508 2.86026 17.1601 2.86026C21.0453 2.86026 24.2392 4.62409 26.6883 6.89442C28.9825 9.02769 30.5675 11.5602 31.3779 13.3479C30.6271 15.0164 29.197 17.3284 27.1531 19.3604L23.9472 16.8457C24.4895 15.797 24.7934 14.6112 24.7934 13.3479C24.7934 9.13495 21.379 5.72052 17.166 5.72052C15.2473 5.72052 13.4894 6.42963 12.1487 7.59756L9.40161 5.44641ZM21.6233 15.0283L16.7668 11.2206C17.0171 10.7141 17.1601 10.136 17.1601 9.5342C17.1601 9.20646 17.1184 8.88468 17.0409 8.58078C17.0826 8.58078 17.1184 8.58078 17.1601 8.58078C19.7939 8.58078 21.9272 10.7141 21.9272 13.3479C21.9272 13.9378 21.8199 14.5039 21.6233 15.0283ZM22.1834 22.7927C20.6639 23.4422 18.9894 23.8355 17.1601 23.8355C13.2749 23.8355 10.0809 22.0717 7.63183 19.8013C5.33766 17.6681 3.7526 15.1355 2.94219 13.3479C3.43678 12.2514 4.22335 10.8749 5.28999 9.48653L3.0435 7.71674C1.68487 9.48653 0.713575 11.2504 0.147482 12.6149C-0.0491607 13.0857 -0.0491607 13.6101 0.147482 14.0808C1.03535 16.2081 2.90048 19.3068 5.68924 21.8929C8.48991 24.5029 12.3453 26.6958 17.1601 26.6958C20.0084 26.6958 22.5171 25.9271 24.6802 24.7591L22.1834 22.7927ZM9.53271 13.3479C9.53271 17.5608 12.9471 20.9752 17.1601 20.9752C17.9526 20.9752 18.7153 20.8561 19.4364 20.6296L16.0875 17.9958C14.6871 17.674 13.5192 16.7325 12.8876 15.4752L9.54462 12.8414C9.53271 13.0082 9.52675 13.1751 9.52675 13.3479H9.53271Z" fill="black"/>
</svg>
