<svg width="38" height="30" viewBox="0 0 38 30" fill="none" xmlns="http://www.w3.org/2000/svg">
<g clip-path="url(#clip0_36_4)">
<path d="M2.27344 0.298852C1.66406 -0.181616 0.779298 -0.0702883 0.298829 0.539087C-0.181639 1.14846 -0.0703112 2.03323 0.539064 2.5137L35.2266 29.7012C35.8359 30.1817 36.7207 30.0703 37.2012 29.461C37.6816 28.8516 37.5703 27.9668 36.9609 27.4864L30.7969 22.6582C33.1172 20.2793 34.6875 17.6133 35.4785 15.7207C35.6719 15.2578 35.6719 14.7422 35.4785 14.2793C34.6055 12.1875 32.7715 9.14065 30.0293 6.59768C27.2754 4.03127 23.4844 1.87502 18.75 1.87502C14.7539 1.87502 11.4258 3.41604 8.83008 5.43752L2.27344 0.298852ZM11.1211 7.23049C13.2422 5.72463 15.791 4.68752 18.75 4.68752C22.5703 4.68752 25.7109 6.4219 28.1191 8.65432C30.375 10.752 31.9336 13.2422 32.7305 15C31.9922 16.6406 30.5859 18.9141 28.5762 20.9121L25.4238 18.4395C25.957 17.4082 26.2559 16.2422 26.2559 15C26.2559 10.8574 22.8984 7.50002 18.7559 7.50002C16.8691 7.50002 15.1406 8.19729 13.8223 9.34573L11.1211 7.23049ZM23.1387 16.6524L18.3633 12.9082C18.6094 12.4102 18.75 11.8418 18.75 11.25C18.75 10.9278 18.709 10.6114 18.6328 10.3125C18.6738 10.3125 18.709 10.3125 18.75 10.3125C21.3398 10.3125 23.4375 12.4102 23.4375 15C23.4375 15.5801 23.332 16.1367 23.1387 16.6524ZM23.6895 24.2871C22.1953 24.9258 20.5488 25.3125 18.75 25.3125C14.9297 25.3125 11.7891 23.5781 9.38086 21.3457C7.125 19.2481 5.56641 16.7578 4.76953 15C5.25586 13.9219 6.0293 12.5684 7.07813 11.2031L4.86914 9.46291C3.5332 11.2031 2.57813 12.9375 2.02149 14.2793C1.82813 14.7422 1.82813 15.2578 2.02149 15.7207C2.89453 17.8125 4.72852 20.8594 7.4707 23.4024C10.2246 25.9688 14.0156 28.125 18.75 28.125C21.5508 28.125 24.0176 27.3692 26.1445 26.2207L23.6895 24.2871ZM11.25 15C11.25 19.1426 14.6074 22.5 18.75 22.5C19.5293 22.5 20.2793 22.3828 20.9883 22.1602L17.6953 19.5703C16.3184 19.2539 15.1699 18.3281 14.5488 17.0918L11.2617 14.502C11.25 14.666 11.2441 14.8301 11.2441 15H11.25Z" fill="black"/>
</g>
<defs>
<clipPath id="clip0_36_4">
<rect width="37.5" height="30" fill="white"/>
</clipPath>
</defs>
</svg>
