<svg width="30" height="30" viewBox="0 0 30 30" fill="none" xmlns="http://www.w3.org/2000/svg">
<circle cx="15" cy="15" r="14" fill="white" stroke="black" stroke-width="2"/>
<path d="M14.1618 24.36L12.9378 12.48L18.0738 11.688L16.5378 24.144L14.1618 24.36ZM13.6818 9.816C13.2498 9.368 13.0338 8.84 13.0338 8.232C13.0338 7.624 13.2498 7.104 13.6818 6.672C14.1298 6.224 14.6578 6 15.2658 6C15.8738 6 16.3938 6.224 16.8258 6.672C17.2738 7.104 17.4978 7.624 17.4978 8.232C17.4978 8.84 17.2738 9.368 16.8258 9.816C16.3938 10.248 15.8738 10.464 15.2658 10.464C14.6578 10.464 14.1298 10.248 13.6818 9.816Z" fill="black"/>
</svg>
