<svg width="29" height="25" viewBox="0 0 29 25" fill="none" xmlns="http://www.w3.org/2000/svg">
<path d="M17.1875 7.03125C17.1875 4.87305 18.9355 3.125 21.0938 3.125C23.252 3.125 25 4.87305 25 7.03125V9.375C25 10.2393 25.6982 10.9375 26.5625 10.9375C27.4268 10.9375 28.125 10.2393 28.125 9.375V7.03125C28.125 3.14941 24.9756 0 21.0938 0C17.2119 0 14.0625 3.14941 14.0625 7.03125V9.375H3.125C1.40137 9.375 0 10.7764 0 12.5V21.875C0 23.5986 1.40137 25 3.125 25H18.75C20.4736 25 21.875 23.5986 21.875 21.875V12.5C21.875 10.7764 20.4736 9.375 18.75 9.375H17.1875V7.03125Z" fill="#30AE5E"/>
<path d="M0 12.5C0 10.8431 1.34315 9.5 3 9.5H12V25H3C1.34315 25 0 23.6569 0 22V12.5Z" fill="#B90410"/>
</svg>
