<svg width="30" height="30" viewBox="0 0 30 30" fill="none" xmlns="http://www.w3.org/2000/svg">
<circle cx="15" cy="15" r="14" fill="white" stroke="black" stroke-width="2"/>
<path d="M13.6613 23.712C13.2293 23.264 13.0133 22.736 13.0133 22.128C13.0133 21.52 13.2293 21 13.6613 20.568C14.1093 20.12 14.6373 19.896 15.2453 19.896C15.8533 19.896 16.3733 20.12 16.8053 20.568C17.2533 21 17.4773 21.52 17.4773 22.128C17.4773 22.736 17.2533 23.264 16.8053 23.712C16.3733 24.144 15.8533 24.36 15.2453 24.36C14.6373 24.36 14.1093 24.144 13.6613 23.712ZM16.8053 11.4C15.0933 11.4 13.6453 11.672 12.4613 12.216L11.6213 8.064C12.6133 7.76 13.6613 7.608 14.7653 7.608C15.8693 7.608 16.8373 7.72 17.6693 7.944C18.5173 8.152 19.1493 8.424 19.5653 8.76C19.7893 9.656 19.9013 10.544 19.9013 11.424C19.9013 13.008 19.3973 14.432 18.3893 15.696C17.3973 16.96 16.3093 17.888 15.1253 18.48L13.7573 16.8C14.9413 16 15.7413 15.16 16.1573 14.28C16.5893 13.384 16.8053 12.424 16.8053 11.4Z" fill="black"/>
</svg>
