<svg width="30" height="30" viewBox="0 0 30 30" fill="none" xmlns="http://www.w3.org/2000/svg">
<g clip-path="url(#clip0_40_7)">
<path d="M7.32285 22.8188L7.17703 22.6649L12.0736 15.7151L9.64357 13.1912C11.5998 11.5353 14.4734 12.3294 14.4734 12.3294L18.884 7.17706L20.9252 9.28233L22.9665 11.3814L17.8633 15.8197C17.8633 15.8197 18.562 18.7068 16.8731 20.6458L14.443 18.122L7.5051 22.9665L7.32285 22.8188Z" fill="black"/>
<path d="M28.4904 15C28.4904 22.4506 22.4506 28.4904 15 28.4904C7.54944 28.4904 1.50957 22.4506 1.50957 15C1.50957 7.54945 7.54944 1.50958 15 1.50958C22.4506 1.50958 28.4904 7.54945 28.4904 15Z" stroke="black" stroke-width="2"/>
</g>
<defs>
<clipPath id="clip0_40_7">
<rect width="30" height="30" fill="white"/>
</clipPath>
</defs>
</svg>
