<svg width="35" height="27" viewBox="0 0 35 27" fill="none" xmlns="http://www.w3.org/2000/svg">
<path d="M17.3556 2.89286C13.4262 2.89286 10.1958 4.67679 7.71881 6.97299C5.39849 9.13058 3.79537 11.692 2.97573 13.5C3.79537 15.308 5.39849 17.8694 7.71278 20.027C10.1958 22.3232 13.4262 24.1071 17.3556 24.1071C21.2851 24.1071 24.5155 22.3232 26.9925 20.027C29.3128 17.8694 30.9159 15.308 31.7355 13.5C30.9159 11.692 29.3128 9.13058 26.9985 6.97299C24.5155 4.67679 21.2851 2.89286 17.3556 2.89286ZM5.74805 4.85759C8.58666 2.21786 12.486 0 17.3556 0C22.2253 0 26.1246 2.21786 28.9632 4.85759C31.7838 7.47924 33.6701 10.6071 34.5681 12.7587C34.767 13.2348 34.767 13.7652 34.5681 14.2413C33.6701 16.3929 31.7838 19.5268 28.9632 22.1424C26.1246 24.7821 22.2253 27 17.3556 27C12.486 27 8.58666 24.7821 5.74805 22.1424C2.92751 19.5268 1.04113 16.3929 0.149163 14.2413C-0.049721 13.7652 -0.049721 13.2348 0.149163 12.7587C1.04113 10.6071 2.92751 7.47321 5.74805 4.85759ZM17.3556 18.3214C20.0195 18.3214 22.1771 16.1638 22.1771 13.5C22.1771 10.8362 20.0195 8.67857 17.3556 8.67857C17.3134 8.67857 17.2773 8.67857 17.2351 8.67857C17.3134 8.98594 17.3556 9.31138 17.3556 9.64286C17.3556 11.7703 15.6259 13.5 13.4985 13.5C13.167 13.5 12.8416 13.4578 12.5342 13.3795C12.5342 13.4217 12.5342 13.4578 12.5342 13.5C12.5342 16.1638 14.6918 18.3214 17.3556 18.3214ZM17.3556 5.78571C19.4016 5.78571 21.3638 6.59847 22.8105 8.04518C24.2572 9.49189 25.0699 11.454 25.0699 13.5C25.0699 15.546 24.2572 17.5081 22.8105 18.9548C21.3638 20.4015 19.4016 21.2143 17.3556 21.2143C15.3097 21.2143 13.3475 20.4015 11.9008 18.9548C10.4541 17.5081 9.64135 15.546 9.64135 13.5C9.64135 11.454 10.4541 9.49189 11.9008 8.04518C13.3475 6.59847 15.3097 5.78571 17.3556 5.78571Z" fill="black"/>
</svg>
