<svg width="34" height="30" viewBox="0 0 34 30" fill="none" xmlns="http://www.w3.org/2000/svg">
<g clip-path="url(#clip0_36_2)">
<path d="M16.875 4.6875C13.0547 4.6875 9.91406 6.42187 7.50586 8.6543C5.25 10.752 3.69141 13.2422 2.89453 15C3.69141 16.7578 5.25 19.248 7.5 21.3457C9.91406 23.5781 13.0547 25.3125 16.875 25.3125C20.6953 25.3125 23.8359 23.5781 26.2441 21.3457C28.5 19.248 30.0586 16.7578 30.8555 15C30.0586 13.2422 28.5 10.752 26.25 8.6543C23.8359 6.42187 20.6953 4.6875 16.875 4.6875ZM5.58984 6.59766C8.34961 4.03125 12.1406 1.875 16.875 1.875C21.6094 1.875 25.4004 4.03125 28.1602 6.59766C30.9023 9.14648 32.7363 12.1875 33.6094 14.2793C33.8027 14.7422 33.8027 15.2578 33.6094 15.7207C32.7363 17.8125 30.9023 20.8594 28.1602 23.4023C25.4004 25.9687 21.6094 28.125 16.875 28.125C12.1406 28.125 8.34961 25.9687 5.58984 23.4023C2.84766 20.8594 1.01367 17.8125 0.146484 15.7207C-0.046875 15.2578 -0.046875 14.7422 0.146484 14.2793C1.01367 12.1875 2.84766 9.14062 5.58984 6.59766ZM16.875 19.6875C19.4648 19.6875 21.5625 17.5898 21.5625 15C21.5625 12.4102 19.4648 10.3125 16.875 10.3125C16.834 10.3125 16.7988 10.3125 16.7578 10.3125C16.834 10.6113 16.875 10.9277 16.875 11.25C16.875 13.3184 15.1934 15 13.125 15C12.8027 15 12.4863 14.959 12.1875 14.8828C12.1875 14.9238 12.1875 14.959 12.1875 15C12.1875 17.5898 14.2852 19.6875 16.875 19.6875ZM16.875 7.5C18.8641 7.5 20.7718 8.29018 22.1783 9.6967C23.5848 11.1032 24.375 13.0109 24.375 15C24.375 16.9891 23.5848 18.8968 22.1783 20.3033C20.7718 21.7098 18.8641 22.5 16.875 22.5C14.8859 22.5 12.9782 21.7098 11.5717 20.3033C10.1652 18.8968 9.375 16.9891 9.375 15C9.375 13.0109 10.1652 11.1032 11.5717 9.6967C12.9782 8.29018 14.8859 7.5 16.875 7.5Z" fill="black"/>
</g>
<defs>
<clipPath id="clip0_36_2">
<rect width="33.75" height="30" fill="white"/>
</clipPath>
</defs>
</svg>
