<svg id="logo" xmlns="http://www.w3.org/2000/svg" viewBox="0 0 21.12 7.63"><defs><style>.cls-1{fill:#4d4c4c;}</style></defs><path class="cls-1" d="M11.82,19.69h5.94v1.57h-2v5.93h-2V21.26H11.82Z" transform="translate(-11.82 -19.69)"/><path class="cls-1" d="M18.15,19.71h5.94l-.59,1.6H20.19v1.37H23.5v1.57H20.19v2.94h-2Z" transform="translate(-11.82 -19.69)"/><path class="cls-1" d="M24.91,22.35a.71.71,0,0,1,.72-.76.7.7,0,0,1,.7.76.71.71,0,1,1-1.42,0Zm0,4.23a.71.71,0,0,1,.72-.75.75.75,0,1,1-.72.75Z" transform="translate(-11.82 -19.69)"/><path class="cls-1" d="M29,27.21H27V23.59h0V19.71l4.9,0a1,1,0,0,1,1.07.88v2.48a1.13,1.13,0,0,1-.29.6.9.9,0,0,1-.52.27v0h-.77l1.56,3.28h-2.1L29.3,24V22.69h1.49V21.3H28.94Z" transform="translate(-11.82 -19.69)"/></svg>