<svg id="logo" xmlns="http://www.w3.org/2000/svg" viewBox="0 0 18.64 7.54"><defs><style>.cls-1{fill:#4d4c4c;}</style></defs><path class="cls-1" d="M11.82,19.69h5.94v1.57h-2v5.93h-2V21.26H11.82Z" transform="translate(-11.82 -19.69)"/><path class="cls-1" d="M18.15,19.71h5.94l-.59,1.6H20.19v1.37H23.5v1.57H20.19v2.94h-2Z" transform="translate(-11.82 -19.69)"/><path class="cls-1" d="M26.53,27.21h-2V23.59h0V19.71l4.89,0a1.09,1.09,0,0,1,.71.21,1,1,0,0,1,.36.67v2.48a1.12,1.12,0,0,1-.28.6.93.93,0,0,1-.52.27v0h-.77l1.56,3.28h-2.1L26.82,24V22.69H28.3V21.3H26.46Z" transform="translate(-11.82 -19.69)"/></svg>