<svg width="30" height="30" viewBox="0 0 30 30" fill="none" xmlns="http://www.w3.org/2000/svg">
<path d="M7.6181 23.6218L7.45665 23.4732L12.0233 15.9502L9.33559 13.5151C11.2391 11.667 14.2628 12.2843 14.2628 12.2843L18.4544 6.65201L20.711 8.68224L22.9673 10.7061L18.0101 15.6498C18.0101 15.6498 18.9353 18.5821 17.3279 20.7039L14.6401 18.2688L7.81675 23.7615L7.6181 23.6218Z" fill="black"/>
<path d="M1.55275 1.55273L28.9846 27.9495" stroke="black" stroke-width="2" stroke-linecap="round"/>
<path d="M29 15C29 22.732 22.732 29 15 29C7.26801 29 1 22.732 1 15C1 7.26801 7.26801 1 15 1C22.732 1 29 7.26801 29 15Z" stroke="black" stroke-width="2"/>
</svg>
