<svg width="30" height="30" viewBox="0 0 30 30" fill="none" xmlns="http://www.w3.org/2000/svg">
<circle cx="15" cy="15" r="14" fill="white" stroke="black" stroke-width="2"/>
<path d="M22.584 13.1758C22.8477 13.4219 23 13.7676 23 14.1309C23 14.8516 22.4141 15.4375 21.6934 15.4375H18.3125V21.0625C18.3125 22.0996 17.4746 22.9375 16.4375 22.9375H14.5625C13.5254 22.9375 12.6875 22.0996 12.6875 21.0625V15.4375H9.30664C8.58594 15.4375 8 14.8516 8 14.1309C8 13.7676 8.15234 13.4219 8.41602 13.1758L14.6914 7.32227C14.9141 7.11719 15.2012 7 15.5 7C15.7988 7 16.0918 7.11719 16.3086 7.32227L22.584 13.1758Z" fill="black"/>
</svg>
