<svg width="23" height="20" viewBox="0 0 23 20" fill="none" xmlns="http://www.w3.org/2000/svg">
<path d="M11.4269 0C12.0609 0 12.6457 0.334821 12.9671 0.883929L22.61 17.3125C22.9359 17.8661 22.9359 18.5491 22.6189 19.1027C22.3019 19.6562 21.7082 20 21.0698 20H1.78407C1.14567 20 0.551924 19.6562 0.234959 19.1027C-0.0820049 18.5491 -0.0775406 17.8616 0.243888 17.3125L9.88674 0.883929C10.2082 0.334821 10.793 0 11.4269 0ZM11.4269 5.71429C10.8332 5.71429 10.3555 6.19196 10.3555 6.78571V11.7857C10.3555 12.3795 10.8332 12.8571 11.4269 12.8571C12.0207 12.8571 12.4984 12.3795 12.4984 11.7857V6.78571C12.4984 6.19196 12.0207 5.71429 11.4269 5.71429ZM12.8555 15.7143C12.8555 15.3354 12.705 14.972 12.4371 14.7041C12.1692 14.4362 11.8058 14.2857 11.4269 14.2857C11.048 14.2857 10.6847 14.4362 10.4168 14.7041C10.1489 14.972 9.99835 15.3354 9.99835 15.7143C9.99835 16.0932 10.1489 16.4565 10.4168 16.7244C10.6847 16.9923 11.048 17.1429 11.4269 17.1429C11.8058 17.1429 12.1692 16.9923 12.4371 16.7244C12.705 16.4565 12.8555 16.0932 12.8555 15.7143Z" fill="#B90410"/>
</svg>
